<?xml version="1.0" encoding="UTF-8"?>
<!DOCTYPE svg PUBLIC "-//W3C//DTD SVG 1.1//EN" "http://www.w3.org/Graphics/SVG/1.1/DTD/svg11.dtd">
<!-- Creator: CorelDRAW -->
<svg xmlns="http://www.w3.org/2000/svg" xml:space="preserve" width="512px" height="512px" version="1.1" style="shape-rendering:geometricPrecision; text-rendering:geometricPrecision; image-rendering:optimizeQuality; fill-rule:evenodd; clip-rule:evenodd"
viewBox="0 0 512 512"
 xmlns:xlink="http://www.w3.org/1999/xlink">
 <defs>
  <style type="text/css">
   <![CDATA[
    .fil0 {fill:black}
   ]]>
  </style>
 </defs>
 <g id="Layer_x0020_1">
  <metadata id="CorelCorpID_0Corel-Layer"/>
  <g id="_548028824">
   <g>
    <g>
     <path class="fil0" d="M457 453c-1,0 -3,0 -4,-1l-98 -68 -165 0c-20,0 -36,-16 -36,-35l0 -176c0,-19 16,-35 36,-35l286 0c19,0 36,16 36,35l0 176c0,19 -17,35 -36,35l-20 0 8 61c0,3 -1,5 -3,7 -2,1 -3,1 -4,1zm-267 -301c-12,0 -22,10 -22,21l0 176c0,11 10,21 22,21l167 0c1,0 3,0 4,1l87 60 -7 -53c0,-2 0,-4 2,-6 1,-1 3,-2 5,-2l28 0c12,0 22,-10 22,-21l0 -176c0,-11 -10,-21 -22,-21l-286 0z"/>
    </g>
    <g>
     <path class="fil0" d="M55 375c-1,0 -2,0 -4,-1 -2,-1 -3,-4 -3,-7l8 -61 -20 0c-20,0 -36,-16 -36,-36l0 -175c0,-20 16,-36 36,-36l286 0c20,0 35,16 35,36l0 50c0,4 -3,7 -7,7 -4,0 -7,-3 -7,-7l0 -50c0,-12 -9,-22 -21,-22l-286 0c-12,0 -22,10 -22,22l0 175c0,12 10,22 22,22l28 0c2,0 4,1 5,2 2,2 2,4 2,6l-7 53 86 -60c1,-1 3,-1 4,-1l7 0c4,0 7,3 7,7 0,4 -3,7 -7,7l-5 0 -97 68c-1,1 -3,1 -4,1z"/>
    </g>
    <g>
     <g>
      <path class="fil0" d="M372 333c-1,0 -2,0 -3,-1l-36 -19 -36 19c-2,1 -5,1 -7,0 -2,-2 -3,-5 -3,-7l7 -40 -29 -28c-2,-2 -3,-4 -2,-7 1,-3 3,-4 6,-5l40 -5 18 -37c1,-2 3,-4 6,-4 3,0 5,2 6,4l18 37 40 5c2,1 5,2 5,5 1,3 1,5 -1,7l-30 28 8 40c0,2 -1,5 -3,7 -1,0 -3,1 -4,1zm-39 -35c1,0 2,0 3,1l26 14 -5 -30c0,-2 0,-5 2,-6l21 -20 -29 -4c-2,0 -4,-2 -5,-4l-13 -27 -13 27c-1,2 -3,4 -5,4l-30 4 22 20c1,1 2,4 2,6l-6 30 27 -14c1,-1 2,-1 3,-1z"/>
     </g>
     <g>
      <path class="fil0" d="M432 323c-1,0 -2,0 -3,-1l-36 -19 -21 11c-3,2 -7,1 -9,-3 -2,-3 -1,-7 3,-9l24 -13c2,-1 4,-1 6,0l27 14 -6 -30c0,-2 1,-4 2,-6l22 -20 -30 -4c-2,0 -4,-2 -5,-4l-13 -27 -13 27c0,2 -2,3 -3,3l-22 10c-4,2 -8,0 -9,-3 -2,-4 0,-8 3,-9l20 -9 18 -38c1,-2 3,-4 6,-4 3,0 5,2 6,4l18 37 40 5c3,1 5,2 6,5 0,3 0,5 -2,7l-30 28 8 40c0,2 -1,5 -3,7 -1,0 -3,1 -4,1z"/>
     </g>
     <g>
      <path class="fil0" d="M234 323c-2,0 -3,-1 -4,-1 -2,-2 -3,-5 -3,-7l7 -40 -29 -28c-2,-2 -3,-5 -2,-7 1,-3 3,-4 6,-5l40 -5 18 -37c1,-2 3,-4 6,-4 3,0 5,2 6,4l18 38 20 9c3,1 5,5 3,9 -1,3 -5,5 -9,3l-22 -10c-2,0 -3,-1 -3,-3l-13 -27 -13 27c-1,2 -3,4 -5,4l-29 4 21 20c1,1 2,4 2,6l-5 30 26 -14c2,-1 4,-1 6,0l25 13c4,2 5,6 3,9 -2,4 -6,5 -9,3l-22 -11 -36 19c-1,1 -2,1 -3,1z"/>
     </g>
    </g>
   </g>
  </g>
 </g>
</svg>
