<?xml version="1.0" encoding="utf-8"?>
<!-- Generator: Adobe Illustrator 23.0.3, SVG Export Plug-In . SVG Version: 6.00 Build 0)  -->
<svg version="1.1" id="Layer_1" xmlns="http://www.w3.org/2000/svg" xmlns:xlink="http://www.w3.org/1999/xlink" x="0px" y="0px"
	 viewBox="0 0 100 100" enable-background="new 0 0 100 100" xml:space="preserve">
<path d="M9.66,76.09h80.87c3.29,0,5.97-2.68,5.97-5.97V58.83c0-2.26-1.31-4.36-3.34-5.36l-59.61-29.2c-1.03-0.51-2.25-0.47-3.25,0.1
	c-1.01,0.57-1.67,1.61-1.76,2.77c-0.16,2.03-0.83,3.91-1.87,5.52c-0.03,0.04-0.06,0.08-0.08,0.12c-1.75,2.64-4.52,4.5-7.71,4.92
	c0,0,0,0,0,0c-4.31,0.59-8.78-1.65-11.14-5.56c-0.53-0.88-1.55-1.28-2.55-1.01c-1.01,0.28-1.69,1.17-1.69,2.22v36.57
	C3.5,73.32,6.26,76.09,9.66,76.09z M90.53,73.09H9.66c-1.74,0-3.16-1.42-3.16-3.16v-4.62h63.67c0.01,0,0.03,0,0.04,0s0.03,0,0.04,0
	H93.5v4.81C93.5,71.75,92.17,73.09,90.53,73.09z M93.5,58.83v3.48H71.71V52.28c0,0,0,0,0,0v-5.98l20.13,9.86
	C92.85,56.66,93.5,57.71,93.5,58.83z M31.54,27.38c0.02-0.24,0.17-0.36,0.25-0.4c0.1-0.06,0.26-0.1,0.44-0.01l12.83,6.29l-1.13,2.68
	c-0.32,0.76,0.04,1.64,0.8,1.96c0.19,0.08,0.39,0.12,0.58,0.12c0.59,0,1.14-0.35,1.38-0.92l1.06-2.53l5.08,2.49l-1.03,2.44
	c-0.32,0.76,0.04,1.64,0.8,1.96c0.19,0.08,0.39,0.12,0.58,0.12c0.59,0,1.14-0.34,1.38-0.92l0.96-2.29l5.3,2.6l-0.94,2.22
	c-0.32,0.76,0.04,1.64,0.8,1.97c0.19,0.08,0.39,0.12,0.58,0.12c0.58,0,1.14-0.34,1.38-0.92l0.87-2.07l5.17,2.53v5.12L29.99,32.88
	C30.83,31.2,31.38,29.35,31.54,27.38z M19.28,40.68c3.65-0.48,6.86-2.43,9.08-5.24l40.35,17.8v9.07H6.5V35.55
	C9.65,39.3,14.54,41.32,19.28,40.68z"/>
<path d="M16.84,60.05c0.09,0.09,0.18,0.17,0.27,0.23c0.26,0.19,0.57,0.28,0.88,0.28c0.3,0,0.6-0.09,0.86-0.27
	c0.21-0.15,0.42-0.32,0.61-0.52l4.93-4.93c0,0,0,0,0,0l3.65-3.65c2.05-2.05,2.05-5.39,0-7.44c-2.05-2.05-5.4-2.05-7.45,0l-2.58,2.58
	l-2.32-2.32c-2.05-2.05-5.39-2.05-7.45,0c-2.05,2.05-2.05,5.39,0,7.45L16.84,60.05z M10.37,46.14c0.89-0.88,2.33-0.88,3.21,0
	l3.37,3.37c0,0,0,0,0,0c0.59,0.59,1.54,0.59,2.12,0l3.64-3.64c0.89-0.88,2.32-0.88,3.21,0c0.88,0.88,0.88,2.32,0,3.2l-7.9,7.9
	l-4.24-4.23c0,0,0,0-0.01,0l-3.4-3.4C9.49,48.46,9.49,47.02,10.37,46.14z"/>
<path d="M27.4,55.57c0,0.83,0.67,1.5,1.5,1.5h9c0.83,0,1.5-0.67,1.5-1.5s-0.67-1.5-1.5-1.5h-9C28.07,54.07,27.4,54.74,27.4,55.57z"
	/>
<path d="M49.47,57.07h4.62c0.01,0,0.01,0,0.02,0h8.98c0.83,0,1.5-0.67,1.5-1.5s-0.67-1.5-1.5-1.5h-9c-0.01,0-0.01,0-0.02,0h-4.6
	c-0.83,0-1.5,0.67-1.5,1.5S48.64,57.07,49.47,57.07z"/>
<circle cx="42.53" cy="55.57" r="1.5"/>
</svg>
